# ProBuilder 5.0.6
# https://unity3d.com/unity/features/worldbuilding/probuilder
# 23/02/2023 19:50:48

mtllib ./Caster.mtl
o Caster

g Model2
v -0.175 -0.2150271 0
v -0.175 0.2150271 0
v -0.1515544 -0.2150271 0.0875
v -0.1515544 0.2150271 0.0875
v -0.08749999 -0.2150271 0.1515545
v -0.08749999 0.2150271 0.1515545
v 7.649493E-09 -0.2150271 0.175
v 7.649493E-09 0.2150271 0.175
v 0.08750001 -0.2150271 0.1515544
v 0.08750001 0.2150271 0.1515544
v 0.1515544 -0.2150271 0.08750001
v 0.1515544 0.2150271 0.08750001
v 0.175 -0.2150271 -1.529899E-08
v 0.175 0.2150271 -1.529899E-08
v 0.1515544 -0.2150271 -0.08749999
v 0.1515544 0.2150271 -0.08749999
v 0.08749998 -0.2150271 -0.1515545
v 0.08749998 0.2150271 -0.1515545
v -2.086854E-09 -0.2150271 -0.175
v -2.086854E-09 0.2150271 -0.175
v -0.08749998 -0.2150271 -0.1515545
v -0.08749998 0.2150271 -0.1515545
v -0.1515544 -0.2150271 -0.08750003
v -0.1515544 0.2150271 -0.08750003
v 0 -0.2150271 0
v -0.1517544 0.2347784 0
v 0 0.2347784 0
v -0.131423 0.2347784 0.07588196
v -0.07587719 0.2347784 0.131424
v 0 0.2347784 0.1517487
v 0.07587719 0.2347784 0.131424
v 0.131423 0.2347784 0.07588196
v 0.1517544 0.2347784 0
v 0.131423 0.2347784 -0.07588196
v 0.07587719 0.2347784 -0.131424
v 0 0.2347784 -0.1517487
v -0.07587719 0.2347784 -0.131424
v -0.131423 0.2347784 -0.07588196
v -0.131423 0.2164321 0.07588196
v -0.1517544 0.2164321 0
v -0.07587719 0.2164321 0.131424
v -0.131423 0.2164321 -0.07588196
v -0.07587719 0.2164321 -0.131424
v 0 0.2164321 -0.1517487
v 0.07587719 0.2164321 -0.131424
v 0.131423 0.2164321 -0.07588196
v 0.1517544 0.2164321 0
v 0.131423 0.2164321 0.07588196
v 0.07587719 0.2164321 0.131424
v 0 0.2164321 0.1517487
v 0.1804981 -0.3734026 0.265564
v 0.1218128 -0.3734026 0.265564
v 0.1804981 -0.3193645 0.265564
v 0.1218128 -0.3193645 0.265564
v -0.2516251 -0.4680005 0.2476807
v -0.2516251 -0.4680005 -0.2523193
v -0.2516251 -0.2247667 0.2476807
v -0.2516251 -0.2247667 -0.2523193
v 0.2483749 -0.4680005 -0.2523193
v 0.2483749 -0.2247667 -0.2523193
v 0.2483749 -0.4680005 0.2476807
v 0.2483749 -0.2247667 0.2476807
v 0.182085 -0.2033787 0.1813965
v -0.1853352 -0.2033787 0.1813965
v 0.182085 -0.2033787 -0.1860352
v -0.1853352 -0.2033787 -0.1860352
v 0.1804981 -0.3734026 0.2476807
v 0.1218128 -0.3734026 0.2476807
v 0.1804981 -0.3193645 0.2476807
v 0.1218128 -0.3193645 0.2476807
v 0.182085 -0.2247667 0.1813965
v -0.1853352 -0.2247667 0.1813965
v 0.182085 -0.2247667 -0.1860352
v -0.1853352 -0.2247667 -0.1860352

vt -0.04529335 -0.2150271
vt -0.04529335 0.2150271
vt 0.04529332 -0.2150271
vt 0.04529332 0.2150271
vt -0.175 0
vt 0 0
vt -0.1515544 0.0875
vt 0.1517544 0
vt 0.131423 0.07588196
vt -0.08749999 0.1515545
vt 0.07587719 0.131424
vt 7.649493E-09 0.175
vt 0 0.1517487
vt 0.08750001 0.1515544
vt -0.07587719 0.131424
vt 0.1515544 0.08750001
vt -0.131423 0.07588196
vt 0.175 -1.529899E-08
vt -0.1517544 0
vt 0.1515544 -0.08749999
vt -0.131423 -0.07588196
vt 0.08749998 -0.1515545
vt -0.07587719 -0.131424
vt -2.086854E-09 -0.175
vt 0 -0.1517487
vt -0.08749998 -0.1515545
vt 0.07587719 -0.131424
vt -0.1515544 -0.08750003
vt 0.131423 -0.07588196
vt 0.0392836 0.2164321
vt -0.03927489 0.2164321
vt 0.0392836 0.2347784
vt -0.03927489 0.2347784
vt 0.07790937 0.1417493
vt 0.1419012 0.07763226
vt 0.06623583 0.1215991
vt 0.1217273 0.06600286
vt 0.1383048 0.0838713
vt 0.1617077 -0.003640132
vt 0.1181253 0.07225174
vt 0.1384196 -0.003640131
vt 0.1617083 0.003639946
vt 0.1383055 -0.08387152
vt 0.1384203 0.003639946
vt 0.1181259 -0.07225193
vt 0.1419 -0.07763106
vt 0.07790822 -0.1417481
vt 0.1217262 -0.06600165
vt 0.06623467 -0.1215979
vt 0.08400643 -0.138223
vt -0.00348208 -0.1617113
vt 0.07236241 -0.1180558
vt -0.003504834 -0.1384176
vt 0.003481108 -0.1617151
vt -0.08400741 -0.1382268
vt 0.003503852 -0.1384214
vt -0.07236339 -0.1180596
vt -0.07790937 -0.1417493
vt -0.1419012 -0.07763225
vt -0.06623583 -0.1215991
vt -0.1217273 -0.06600286
vt -0.1383048 -0.08387129
vt -0.1617077 0.003640118
vt -0.1181253 -0.07225174
vt -0.1384196 0.003640132
vt -0.1617083 -0.003639963
vt -0.1383055 0.0838715
vt -0.1384203 -0.003639947
vt -0.1181259 0.07225193
vt -0.1419 0.07763104
vt -0.07790823 0.141748
vt -0.1217262 0.06600165
vt -0.06623466 0.1215979
vt -0.08400645 0.138223
vt 0.003482077 0.1617113
vt -0.0723624 0.1180558
vt 0.003504837 0.1384176
vt -0.003481113 0.1617151
vt 0.08400742 0.1382268
vt -0.003503851 0.1384214
vt 0.07236339 0.1180596
vt 0.3640156 -0.1554022
vt 0.3053303 -0.1554022
vt 0.3640156 -0.1013641
vt 0.3053303 -0.1013641
vt 0.25 -0.2500001
vt -0.25 -0.2500001
vt 0.25 -0.00676626
vt -0.25 -0.00676626
vt 0.06810856 -0.2500001
vt -0.4318914 -0.2500001
vt 0.06810856 -0.00676626
vt -0.4318914 -0.00676626
vt -0.3656015 0.1837158
vt 0.001818657 0.1837158
vt -0.3656015 -0.1837158
vt 0.001818657 -0.1837158
vt 0.4318914 -0.25
vt -0.06810856 -0.25
vt 0.4318914 0.25
vt -0.06810856 0.25
vt 0.4318914 -0.00676626
vt -0.06810857 -0.00676626
vt 0.3640156 0.25
vt 0.3053303 0.25
vt 0.3640156 0.2678833
vt 0.3053303 0.2678833
vt -0.25 -0.1013641
vt -0.25 -0.1554022
vt -0.2678833 -0.1013641
vt -0.2678833 -0.1554022
vt 0.25 -0.1554022
vt 0.25 -0.1013641
vt 0.2678833 -0.1554022
vt 0.2678833 -0.1013641
vt -0.3053303 0.25
vt -0.3640156 0.25
vt -0.3053303 0.2678833
vt -0.3640156 0.2678833
vt -0.4318914 0.25
vt 0.06810856 0.25
vt 0.3656015 -0.006766319
vt -0.001818657 -0.006766319
vt 0.3656015 0.01462173
vt -0.001818657 0.01462173
vt 0.1837158 -0.006766319
vt -0.1837158 -0.006766319
vt 0.1837158 0.01462173
vt -0.1837158 0.01462173
vt 0.001818657 -0.006766319
vt -0.3656015 -0.006766319
vt 0.001818657 0.01462173
vt -0.3656015 0.01462173

vn -1 0 1.542682E-08
vn -0.8660254 0 0.5000001
vn -0.5 0 0.8660254
vn 7.713409E-08 0 1
vn 0.5000001 0 0.8660254
vn 0.8660254 0 0.5
vn 1 0 -7.713409E-08
vn 0.8660254 0 -0.5000001
vn 0.5 0 -0.8660254
vn 0 0 -1
vn -0.4999999 0 -0.8660254
vn -0.8660253 0 -0.5000001
vn 0 -1 0
vn 0 1 0
vn -0.9659294 0 0.2588057
vn -0.7070825 0 0.7071311
vn -0.9659294 0 -0.2588057
vn -0.7070825 0 -0.7071311
vn -0.2587416 0 -0.9659466
vn 0.2587416 0 -0.9659466
vn 0.7070825 0 -0.7071311
vn 0.9659294 0 -0.2588057
vn 0.9659294 0 0.2588057
vn 0.7070825 0 0.7071311
vn 0.2587416 0 0.9659466
vn -0.2587416 0 0.9659466
vn -0.04416101 0.9980479 0.04416101
vn -0.06032648 0.9980478 0.01616444
vn -0.06032355 0.998048 -0.01616365
vn -0.04416626 0.9980475 -0.04416628
vn -0.0161642 0.9980478 -0.06032561
vn 0.01615968 0.998049 -0.06030876
vn 0.04416103 0.9980479 -0.04416102
vn 0.06032648 0.9980478 -0.01616444
vn 0.06032356 0.998048 0.01616365
vn 0.0441663 0.9980475 0.0441663
vn 0.01616421 0.9980478 0.06032563
vn -0.01615968 0.998049 0.06030877

usemtl Brick
f 1/5/13 25/6/13 3/7/13
f 3/7/13 25/6/13 5/10/13
f 5/10/13 25/6/13 7/12/13
f 7/12/13 25/6/13 9/14/13
f 9/14/13 25/6/13 11/16/13
f 11/16/13 25/6/13 13/18/13
f 13/18/13 25/6/13 15/20/13
f 15/20/13 25/6/13 17/22/13
f 17/22/13 25/6/13 19/24/13
f 19/24/13 25/6/13 21/26/13
f 21/26/13 25/6/13 23/28/13
f 23/28/13 25/6/13 1/5/13
f 4/4/2 2/2/1 1/1/1
f 1/1/1 3/3/2 4/4/2
f 6/4/3 4/2/2 3/1/2
f 3/1/2 5/3/3 6/4/3
f 8/4/4 6/2/3 5/1/3
f 5/1/3 7/3/4 8/4/4
f 10/4/5 8/2/4 7/1/4
f 7/1/4 9/3/5 10/4/5
f 12/4/6 10/2/5 9/1/5
f 9/1/5 11/3/6 12/4/6
f 14/4/7 12/2/6 11/1/6
f 11/1/6 13/3/7 14/4/7
f 16/4/8 14/2/7 13/1/7
f 13/1/7 15/3/8 16/4/8
f 18/4/9 16/2/8 15/1/8
f 15/1/8 17/3/9 18/4/9
f 20/4/10 18/2/9 17/1/9
f 17/1/9 19/3/10 20/4/10
f 22/4/11 20/2/10 19/1/10
f 19/1/10 21/3/11 22/4/11
f 24/4/12 22/2/11 21/1/11
f 21/1/11 23/3/12 24/4/12
f 2/4/1 24/2/12 23/1/12
f 23/1/12 1/3/1 2/4/1

usemtl White
f 28/9/14 27/6/14 26/8/14
f 29/11/14 27/6/14 28/9/14
f 30/13/14 27/6/14 29/11/14
f 31/15/14 27/6/14 30/13/14
f 32/17/14 27/6/14 31/15/14
f 33/19/14 27/6/14 32/17/14
f 34/21/14 27/6/14 33/19/14
f 35/23/14 27/6/14 34/21/14
f 36/25/14 27/6/14 35/23/14
f 37/27/14 27/6/14 36/25/14
f 38/29/14 27/6/14 37/27/14
f 26/8/14 27/6/14 38/29/14
f 26/33/15 40/31/15 39/30/15
f 39/30/15 28/32/15 26/33/15
f 28/33/16 39/31/16 41/30/16
f 41/30/16 29/32/16 28/33/16
f 38/33/17 42/31/17 40/30/17
f 40/30/17 26/32/17 38/33/17
f 37/33/18 43/31/18 42/30/18
f 42/30/18 38/32/18 37/33/18
f 36/33/19 44/31/19 43/30/19
f 43/30/19 37/32/19 36/33/19
f 35/33/20 45/31/20 44/30/20
f 44/30/20 36/32/20 35/33/20
f 34/33/21 46/31/21 45/30/21
f 45/30/21 35/32/21 34/33/21
f 33/33/22 47/31/22 46/30/22
f 46/30/22 34/32/22 33/33/22
f 32/33/23 48/31/23 47/30/23
f 47/30/23 33/32/23 32/33/23
f 31/33/24 49/31/24 48/30/24
f 48/30/24 32/32/24 31/33/24
f 30/33/25 50/31/25 49/30/25
f 49/30/25 31/32/25 30/33/25
f 29/33/26 41/31/26 50/30/26
f 50/30/26 30/32/26 29/33/26
f 39/37/27 4/35/27 6/34/27
f 6/34/27 41/36/27 39/37/27
f 40/41/28 2/39/28 4/38/28
f 4/38/28 39/40/28 40/41/28
f 42/45/29 24/43/29 2/42/29
f 2/42/29 40/44/29 42/45/29
f 43/49/30 22/47/30 24/46/30
f 24/46/30 42/48/30 43/49/30
f 44/53/31 20/51/31 22/50/31
f 22/50/31 43/52/31 44/53/31
f 45/57/32 18/55/32 20/54/32
f 20/54/32 44/56/32 45/57/32
f 46/61/33 16/59/33 18/58/33
f 18/58/33 45/60/33 46/61/33
f 47/65/34 14/63/34 16/62/34
f 16/62/34 46/64/34 47/65/34
f 48/69/35 12/67/35 14/66/35
f 14/66/35 47/68/35 48/69/35
f 49/73/36 10/71/36 12/70/36
f 12/70/36 48/72/36 49/73/36
f 50/77/37 8/75/37 10/74/37
f 10/74/37 49/76/37 50/77/37
f 41/81/38 6/79/38 8/78/38
f 8/78/38 50/80/38 41/81/38
f 66/97/14 64/95/14 63/94/14
f 63/94/14 65/96/14 66/97/14
f 64/125/4 72/123/4 71/122/4
f 71/122/4 63/124/4 64/125/4
f 63/129/7 71/127/7 73/126/7
f 73/126/7 65/128/7 63/129/7
f 66/129/1 74/127/1 72/126/1
f 72/126/1 64/128/1 66/129/1
f 65/133/10 73/131/10 74/130/10
f 74/130/10 66/132/10 65/133/10

usemtl Test
f 53/84/4 54/85/4 52/83/4 51/82/4
f 51/106/13 52/107/13 68/105/13 67/104/13
f 53/110/7 51/111/7 67/109/7 69/108/7
f 52/114/1 54/115/1 70/113/1 68/112/1
f 54/118/14 53/119/14 69/117/14 70/116/14

usemtl FurnaceMat
f 57/88/1 58/89/1 56/87/1 55/86/1
f 58/92/10 60/93/10 59/91/10 56/90/10
f 60/88/7 62/89/7 61/87/7 59/86/7
f 61/100/13 55/101/13 56/99/13 59/98/13
f 67/82/4 68/83/4 55/99/4 61/98/4
f 69/84/4 67/82/4 61/98/4 62/102/4
f 68/83/4 70/85/4 57/103/4 55/99/4
f 70/85/4 69/84/4 62/102/4 57/103/4
f 71/94/14 72/95/14 57/121/14 62/120/14
f 73/96/14 71/94/14 62/120/14 60/91/14
f 72/95/14 74/97/14 58/90/14 57/121/14
f 74/97/14 73/96/14 60/91/14 58/90/14

