# ProBuilder 5.0.6
# https://unity3d.com/unity/features/worldbuilding/probuilder
# 18/02/2023 15:27:25

mtllib ./ingot.mtl
o ingot

g Cube
v 0.125 -0.05 0.075
v -0.125 -0.05 0.075
v 0.08749962 0.05 0.05249979
v -0.08749962 0.05 0.05249979
v -0.125 -0.05 -0.075
v -0.08749962 0.05 -0.05249975
v 0.125 -0.05 -0.075
v 0.08749962 0.05 -0.05249975

vt 0.125 -0.06524403
vt -0.125 -0.06524403
vt 0.08749962 0.03725602
vt -0.08749962 0.03725602
vt 0.075 -0.09070722
vt -0.075 -0.09070722
vt 0.05249979 0.01609297
vt -0.05249975 0.01609296
vt -0.08749962 0.05249979
vt 0.08749962 0.05249979
vt -0.08749962 -0.05249975
vt 0.08749962 -0.05249975
vt 0.125 -0.075
vt -0.125 -0.075
vt 0.125 0.075
vt -0.125 0.075

vn 0 0.2195141 0.9756093
vn -0.9363281 0.3511266 0
vn 0 0.2195145 -0.9756092
vn 0.936328 0.3511266 0
vn 0 1 -3.547911E-08
vn 0 -1 0

usemtl Lit
f 3/3/1 4/4/1 2/2/1 1/1/1
f 4/7/2 6/8/2 5/6/2 2/5/2
f 6/3/3 8/4/3 7/2/3 5/1/3
f 8/7/4 3/8/4 1/6/4 7/5/4
f 8/11/5 6/12/5 4/10/5 3/9/5
f 1/15/6 2/16/6 5/14/6 7/13/6

