# ProBuilder 5.0.6
# https://unity3d.com/unity/features/worldbuilding/probuilder
# 23/02/2023 19:47:04

mtllib ./Mufflefurnace.mtl
o Mufflefurnace

g Model
v -0.25 -0.375 -0.25
v 0.25 -0.375 -0.25
v -0.25 0.375 -0.25
v 0.25 0.375 -0.25
v 0.1499126 -0.27865 0.2396598
v 0.1274137 -0.27865 0.2396598
v 0.1274137 -0.23635 0.2396598
v 0.1499126 -0.23635 0.2396598
v 0.1049147 -0.27865 0.2396598
v 0.1049147 -0.23635 0.2396598
v -0.1619987 -0.04935995 0.2699997
v -0.1619987 0.2843599 0.2699998
v 0 0.2843599 0.2699998
v 0 -0.04935995 0.2699997
v 0.1619987 0.2843599 0.2699998
v 0.1619987 -0.04935995 0.2699997
v -0.25 -0.375 0.25
v -0.25 0.375 0.25
v -0.25 -0.14 0.2500002
v 0.25 -0.375 0.25
v 0.25 -0.14 0.2500002
v 0.25 0.375 0.25
v 0 0.375 0.25
v 0 -0.375 0.25
v 0 -0.14 0.2500002
v 0 -0.11425 0.2500002
v -0.2249985 -0.11425 0.2500002
v -0.2249985 0.3492499 0.2500003
v 0 0.3492499 0.2500003
v 0.2249985 -0.11425 0.2500002
v 0.2249985 0.3492499 0.2500003
v 0 -0.11425 0.2299998
v -0.2249985 -0.11425 0.2299998
v -0.2249985 0.3492499 0.2299998
v 0 0.3492499 0.2299998
v 0.2249985 -0.11425 0.2299998
v 0.2249985 0.3492499 0.2299998
v 0 -0.04935995 0.2299998
v -0.1619987 -0.04935995 0.2299998
v -0.1619987 0.2843599 0.2299998
v 0 0.2843599 0.2299998
v 0.1619987 -0.04935995 0.2299998
v 0.1619987 0.2843599 0.2299998
v 0.2187157 0.1275116 0.2380002
v 0.2187157 0.1074885 0.2380002
v 0.2187157 0.1275116 0.2620003
v 0.2187157 0.1074885 0.2620003
v 0.2249985 -0.36325 0.2500002
v 0 -0.36325 0.2500002
v 0.2249985 -0.15175 0.2500002
v 0 -0.15175 0.2500002
v -0.2249985 -0.36325 0.2500002
v -0.2249985 -0.15175 0.2500002
v 0.2249985 -0.36325 0.2299997
v 0 -0.36325 0.2299997
v 0.2249985 -0.15175 0.2299997
v 0 -0.15175 0.2299997
v -0.2249985 -0.36325 0.2299997
v -0.2249985 -0.15175 0.2299997
v 0.1525002 -0.2786501 0.2299997
v 0.1300011 -0.2786501 0.2299997
v 0.1525002 -0.2363501 0.2299997
v 0.1300011 -0.2363501 0.2299997
v 0.107502 -0.2786501 0.2299997
v 0.107502 -0.2363501 0.2299997
v 0.1619987 0.134186 0.2299998
v 0.1619987 0.1008141 0.2299998
v 0.1619987 0.134186 0.2699997
v 0.1619987 0.1008141 0.2699997
v 0.1619987 0.1275116 0.2380002
v 0.1619987 0.1074885 0.2380002
v 0.1619987 0.1275116 0.2620003
v 0.1619987 0.1074885 0.2620003

vt 0.25 -0.375
vt -0.25 -0.375
vt 0.25 0.375
vt -0.25 0.375
vt 0.1499127 -0.27865
vt 0.1274138 -0.27865
vt 0.1274138 -0.23635
vt 0.1499127 -0.23635
vt 0.1049148 -0.27865
vt 0.1049148 -0.23635
vt -0.1619987 -0.0493599
vt -0.1619987 0.28436
vt 1.772557E-16 0.28436
vt 1.772556E-16 -0.0493599
vt 0.1619987 0.28436
vt 0.1619987 -0.0493599
vt 0.2500002 -0.14
vt -0.2500002 -0.14
vt -0.25 0.25
vt 0 0.25
vt 0.25 0.25
vt 0.25 -0.25
vt -0.25 -0.25
vt 0 -0.14
vt 0 -0.11425
vt -0.2249985 -0.11425
vt -0.2499999 -0.1400001
vt -0.2499999 0.3749999
vt -0.2249984 0.3492498
vt -0.25 0.3749974
vt 0 0.3749974
vt 0 0.3492473
vt 0.2249985 -0.11425
vt 0.2499974 0.3749999
vt 0.2499974 -0.1400001
vt 0.2249959 0.3492498
vt 0.25 0.3749974
vt 0.2249985 0.2500002
vt 0 0.2299998
vt 0.2249985 0.2299998
vt -0.2500002 -0.11425
vt -0.2500003 0.3492499
vt -0.2299998 -0.11425
vt -0.2299998 0.3492499
vt -0.2249985 0.2500003
vt -0.2249985 0.2299998
vt 0.2500003 0.3492499
vt 0.2500002 -0.11425
vt 0.2299998 0.3492499
vt 0.2299998 -0.11425
vt -0.1619987 0.2299998
vt 0 0.2699997
vt -0.1619987 0.2699997
vt 0.2299998 -0.04935995
vt 0.2299998 0.2843599
vt 0.2699997 -0.04935995
vt 0.2699998 0.2843599
vt 0.1619987 0.2299998
vt 0.1619987 0.2699998
vt -0.2380002 0.1275116
vt -0.2380002 0.1074885
vt -0.2620003 0.1275116
vt -0.2620003 0.1074885
vt 0.25 -0.3749962
vt 0 -0.3749962
vt 0.2249985 -0.3632462
vt 0 -0.3632462
vt 0.2499999 -0.1399998
vt 0.2499999 -0.3749998
vt 0.2249984 -0.1517498
vt 0 -0.15175
vt -0.25 -0.3749962
vt -0.2249985 -0.3632462
vt -0.2499983 -0.3749998
vt -0.2499983 -0.1399998
vt -0.2249968 -0.1517498
vt 0.2500002 -0.15175
vt 0.2500002 -0.36325
vt 0.2299997 -0.15175
vt 0.2299997 -0.36325
vt -0.2500002 -0.36325
vt -0.2500002 -0.15175
vt -0.2299997 -0.36325
vt -0.2299997 -0.15175
vt 0.1525002 -0.27865
vt 0.1300011 -0.27865
vt 0.1525001 -0.2363501
vt 0.1300011 -0.2363501
vt 0.107502 -0.27865
vt 0.107502 -0.2363501
vt -0.2699998 0.2843599
vt -0.2299998 0.2843599
vt -0.2699997 0.134186
vt -0.2299998 0.134186
vt -0.2299998 -0.04935995
vt -0.2699997 -0.04935995
vt -0.2299998 0.1008141
vt -0.2699997 0.1008141
vt -0.1619987 0.1275116
vt -0.1619987 0.1074885
vt -0.2187157 0.1275116
vt -0.2187157 0.1074885
vt -0.1619987 0.2620003
vt -0.1619987 0.2380002
vt -0.2187157 0.2620003
vt -0.2187157 0.2380002
vt 0.1619987 0.2380002
vt 0.1619987 0.2620003
vt 0.2187157 0.2380002
vt 0.2187157 0.2620003
vt 0.1619987 0.1074885
vt 0.1619987 0.1275116
vt 0.2187157 0.1074885
vt 0.2187157 0.1275116
vt 0.1525002 0.229998
vt 0.1300011 0.229998
vt 0.1499126 0.2396581
vt 0.1274137 0.2396581
vt -0.1827102 -0.2363501
vt -0.1827102 -0.27865
vt -0.1927108 -0.23635
vt -0.1927108 -0.27865
vt -0.1300011 0.2299983
vt -0.1525002 0.2299983
vt -0.1274137 0.2396584
vt -0.1499126 0.2396584
vt 0.107502 0.229998
vt 0.1049147 0.2396581
vt 0.1943569 -0.2786501
vt 0.1943569 -0.2363501
vt 0.2043575 -0.27865
vt 0.2043575 -0.23635
vt -0.107502 0.2299983
vt -0.1049147 0.2396583

vn 0 0 -1
vn -3.311524E-07 -1.761367E-07 1
vn -1 0 0
vn 1 0 0
vn 0 1 0
vn 0 -1 0
vn 0 0 0
vn 0.9659477 -9.114639E-08 0.2587376
vn -0.9659541 9.113796E-08 -0.2587137

usemtl Lit
f 1/2/3 17/1/3 19/17/3
f 3/4/3 1/2/3 19/17/3
f 3/4/3 19/17/3 18/3/3
f 22/4/4 21/18/4 4/3/4
f 21/18/4 2/1/4 4/3/4
f 21/18/4 20/2/4 2/1/4
f 23/20/5 3/22/5 18/21/5
f 3/22/5 23/20/5 4/23/5
f 23/20/5 22/19/5 4/23/5
f 2/22/6 20/21/6 24/20/6
f 2/22/6 24/20/6 1/23/6
f 17/19/6 1/23/6 24/20/6
f 4/4/1 2/2/1 1/1/1
f 1/1/1 3/3/1 4/4/1
f 27/26/2 19/18/2 25/24/2
f 25/24/2 26/25/2 27/26/2
f 28/29/2 18/28/2 19/27/2
f 19/27/2 27/26/2 28/29/2
f 29/32/2 23/31/2 18/30/2
f 18/30/2 28/29/2 29/32/2
f 26/25/2 25/24/2 21/17/2
f 21/17/2 30/33/2 26/25/2
f 30/33/2 21/35/2 22/34/2
f 22/34/2 31/36/2 30/33/2
f 31/36/2 22/37/2 23/31/2
f 23/31/2 29/32/2 31/36/2
f 33/40/5 27/38/5 26/20/5
f 26/20/5 32/39/5 33/40/5
f 34/44/4 28/42/4 27/41/4
f 27/41/4 33/43/4 34/44/4
f 35/39/6 29/20/6 28/45/6
f 28/45/6 34/46/6 35/39/6
f 32/39/5 26/20/5 30/45/5
f 30/45/5 36/46/5 32/39/5
f 36/50/3 30/48/3 31/47/3
f 31/47/3 37/49/3 36/50/3
f 37/40/6 31/38/6 29/20/6
f 29/20/6 35/39/6 37/40/6
f 39/11/2 33/26/2 32/25/2
f 32/25/2 38/14/2 39/11/2
f 40/12/2 34/29/2 33/26/2
f 33/26/2 39/11/2 40/12/2
f 41/13/2 35/32/2 34/29/2
f 34/29/2 40/12/2 41/13/2
f 38/14/2 32/25/2 36/33/2
f 36/33/2 42/16/2 38/14/2
f 42/16/2 36/33/2 37/36/2
f 37/36/2 43/15/2 42/16/2
f 43/15/2 37/36/2 35/32/2
f 35/32/2 41/13/2 43/15/2
f 47/63/4 45/61/4 44/60/4
f 44/60/4 46/62/4 47/63/4
f 49/67/2 24/65/2 20/64/2
f 20/64/2 48/66/2 49/67/2
f 48/66/2 20/69/2 21/68/2
f 21/68/2 50/70/2 48/66/2
f 50/70/2 21/17/2 25/24/2
f 25/24/2 51/71/2 50/70/2
f 52/73/2 17/72/2 24/65/2
f 24/65/2 49/67/2 52/73/2
f 53/76/2 19/75/2 17/74/2
f 17/74/2 52/73/2 53/76/2
f 51/71/2 25/24/2 19/18/2
f 19/18/2 53/76/2 51/71/2
f 55/39/5 49/20/5 48/45/5
f 48/45/5 54/46/5 55/39/5
f 54/80/3 48/78/3 50/77/3
f 50/77/3 56/79/3 54/80/3
f 56/40/6 50/38/6 51/20/6
f 51/20/6 57/39/6 56/40/6
f 58/40/5 52/38/5 49/20/5
f 49/20/5 55/39/5 58/40/5
f 59/84/4 53/82/4 52/81/4
f 52/81/4 58/83/4 59/84/4
f 57/39/6 51/20/6 53/45/6
f 53/45/6 59/46/6 57/39/6
f 44/106/5 70/104/5 72/103/5
f 72/103/5 46/105/5 44/106/5
f 47/110/6 73/108/6 71/107/6
f 71/107/6 45/109/6 47/110/6
f 46/114/2 72/112/2 73/111/2
f 73/111/2 47/113/2 46/114/2

usemtl FurnaceMat
f 12/12/2 11/11/2 14/14/2
f 12/12/2 14/14/2 13/13/2
f 13/13/2 14/14/2 16/16/2
f 13/13/2 16/16/2 15/15/2
f 11/53/6 39/51/6 38/39/6
f 38/39/6 14/52/6 11/53/6
f 12/57/3 40/55/3 39/54/3
f 39/54/3 11/56/3 12/57/3
f 13/52/5 41/39/5 40/58/5
f 40/58/5 12/59/5 13/52/5
f 14/52/6 38/39/6 42/58/6
f 42/58/6 16/59/6 14/52/6
f 15/53/5 43/51/5 41/39/5
f 41/39/5 13/52/5 15/53/5
f 67/51/7 42/51/7 43/51/7
f 43/51/7 66/51/7 67/51/7
f 66/94/4 43/92/4 15/91/4
f 15/91/4 68/93/4 66/94/4
f 69/98/4 16/96/4 42/95/4
f 42/95/4 67/97/4 69/98/4
f 68/53/7 15/53/7 16/53/7
f 16/53/7 69/53/7 68/53/7
f 71/61/4 67/97/4 66/94/4
f 66/94/4 70/60/4 71/61/4
f 70/60/4 66/94/4 68/93/4
f 68/93/4 72/62/4 70/60/4
f 73/63/4 69/98/4 67/97/4
f 67/97/4 71/61/4 73/63/4
f 72/62/4 68/93/4 69/98/4
f 69/98/4 73/63/4 72/62/4
f 45/102/1 71/100/1 70/99/1
f 70/99/1 44/101/1 45/102/1

usemtl Gray
f 60/85/2 61/86/2 55/67/2 54/66/2
f 62/87/2 60/85/2 54/66/2 56/70/2
f 63/88/2 62/87/2 56/70/2 57/71/2
f 61/86/2 64/89/2 58/73/2 55/67/2
f 64/89/2 65/90/2 59/76/2 58/73/2
f 65/90/2 63/88/2 57/71/2 59/76/2

usemtl Test
f 7/7/2 6/6/2 5/5/2
f 7/7/2 5/5/2 8/8/2
f 10/10/2 9/9/2 6/6/2
f 10/10/2 6/6/2 7/7/2
f 6/118/6 61/116/6 60/115/6
f 60/115/6 5/117/6 6/118/6
f 5/122/8 60/120/8 62/119/8
f 62/119/8 8/121/8 5/122/8
f 8/126/5 62/124/5 63/123/5
f 63/123/5 7/125/5 8/126/5
f 9/128/6 64/127/6 61/116/6
f 61/116/6 6/118/6 9/128/6
f 10/132/9 65/130/9 64/129/9
f 64/129/9 9/131/9 10/132/9
f 7/125/5 63/123/5 65/133/5
f 65/133/5 10/134/5 7/125/5

