# ProBuilder 5.0.6
# https://unity3d.com/unity/features/worldbuilding/probuilder
# 04/03/2023 18:57:12

mtllib ./sandbag.mtl
o sandbag

g sandbag
v -0.2160133 -0.1 0
v -0.2160133 0.1 0
v -0.1959171 -0.1 0.05
v -0.1959171 0.1 0.05
v -0.195919 -0.05000007 0.05000031
v -0.195919 0.05000007 0.05000032
v -0.1410141 -0.05000008 0.08660233
v -0.1410141 0.05000007 0.08660234
v -0.06601334 -0.05000008 0.1000005
v -0.06601334 0.05000006 0.1000005
v 0.008987427 -0.05000008 0.08660233
v 0.008987427 0.05000007 0.08660234
v 0.06389236 -0.05000007 0.05000031
v 0.06389236 0.05000007 0.05000032
v 0.06389047 -0.1 0.05000001
v 0.06389047 0.1 0.05000001
v 0.08398667 -0.1 -8.742278E-09
v 0.08398667 0.1 -8.742278E-09
v 0.06389047 -0.1 -0.05
v 0.06389047 0.1 -0.05
v 0.008986652 -0.1 -0.08660255
v 0.008986652 0.1 -0.08660255
v -0.06601334 -0.1 -0.1
v -0.06601334 0.1 -0.1
v -0.1410133 -0.1 -0.08660255
v -0.1410133 0.1 -0.08660255
v -0.1959171 -0.1 -0.05000002
v -0.1959171 0.1 -0.05000002
v -0.2010155 -0.13 1.150801E-07
v -0.06601334 -0.13 1.150801E-07
v -0.18293 -0.13 0.04500019
v -0.1710129 0.16 1.38467E-07
v -0.06601334 0.16 1.38467E-07
v -0.1569481 0.16 0.01000037
v -0.1335144 -0.13 0.07794201
v -0.118515 0.16 0.01732077
v -0.06601334 -0.13 0.09000026
v -0.06601334 0.16 0.0200006
v 0.001487732 -0.13 0.07794201
v -0.01351166 0.16 0.01732077
v 0.05090332 -0.13 0.04500019
v 0.02492142 0.16 0.01000037
v 0.0689888 -0.13 1.150801E-07
v 0.03898621 0.16 1.38467E-07
v 0.05090332 -0.13 -0.04499996
v 0.02492142 0.16 -0.01000009
v 0.001487732 -0.13 -0.07794178
v -0.01351166 0.16 -0.0173205
v -0.06601334 -0.13 -0.09000004
v -0.06601334 0.16 -0.02000032
v -0.1335144 -0.13 -0.07794178
v -0.118515 0.16 -0.0173205
v -0.18293 -0.13 -0.04499996
v -0.1569481 0.16 -0.01000009
v -0.1410133 0.1 0.08660255
v 0.008986674 0.1 0.08660254
v -0.06601333 0.1 0.1
v -0.1410133 -0.1 0.08660255
v -0.06601333 -0.1 0.1
v 0.008986674 -0.1 0.08660254

vt -0.08055765 -0.1
vt -0.08055765 0.1
vt -0.0266702 -0.1
vt -0.0266702 0.1
vt -0.1352817 -0.05000006
vt -0.1352817 0.05000008
vt -0.06929491 -0.05000006
vt -0.0692949 0.05000008
vt -0.1235869 -0.05000007
vt -0.1235869 0.05000008
vt -0.04739884 -0.05000007
vt -0.04739884 0.05000007
vt -0.08257031 -0.05000007
vt -0.08257031 0.05000007
vt -0.006382216 -0.05000007
vt -0.006382218 0.05000008
vt -0.0405591 -0.05000007
vt -0.04055911 0.05000007
vt 0.02542771 -0.05000007
vt 0.02542771 0.05000008
vt -0.02256639 -0.1
vt -0.02256639 0.1
vt 0.03132107 -0.1
vt 0.03132107 0.1
vt -0.03132107 -0.1
vt -0.03132107 0.1
vt 0.02256637 -0.1
vt 0.02256637 0.1
vt -0.02542508 -0.1
vt -0.02542508 0.1
vt 0.0405611 -0.1
vt 0.0405611 0.1
vt 0.006382372 -0.1
vt 0.006382372 0.1
vt 0.08256958 -0.1
vt 0.08256958 0.1
vt 0.04739974 -0.1
vt 0.04739974 0.1
vt 0.1235869 -0.1
vt 0.1235869 0.1
vt 0.06929176 -0.1
vt 0.06929176 0.1
vt 0.1352779 -0.1
vt 0.1352779 0.1
vt 0.02667016 -0.1
vt 0.02667016 0.1
vt 0.08055763 -0.1
vt 0.08055763 0.1
vt -0.2010155 1.150801E-07
vt -0.06601334 1.150801E-07
vt -0.18293 0.04500019
vt 0.1710129 1.38467E-07
vt 0.06601334 1.38467E-07
vt 0.1569481 0.01000037
vt -0.1335144 0.07794201
vt 0.118515 0.01732077
vt -0.06601334 0.09000026
vt 0.06601334 0.0200006
vt 0.001487732 0.07794201
vt 0.01351166 0.01732077
vt 0.05090332 0.04500019
vt -0.02492142 0.01000037
vt 0.0689888 1.150801E-07
vt -0.03898621 1.38467E-07
vt 0.05090332 -0.04499996
vt -0.02492142 -0.01000009
vt 0.001487746 -0.07794175
vt 0.01351166 -0.0173205
vt -0.06601334 -0.09000002
vt 0.06601334 -0.02000032
vt -0.1335144 -0.07794176
vt 0.118515 -0.0173205
vt -0.18293 -0.04499992
vt 0.1569481 -0.01000009
vt -0.0266702 -0.05377176
vt -0.08055765 -0.05377176
vt -0.04925156 0.02502314
vt -0.06377555 0.01898141
vt 0.08451715 -0.008735511
vt 0.1341181 -0.05225468
vt 0.03846591 -0.09110916
vt 0.07318696 -0.10618
vt 0.08055763 -0.03240551
vt 0.02667016 -0.03240551
vt 0.06377578 0.04069311
vt 0.0492518 0.04601717
vt 0.1156918 0.07537208
vt 0.06874212 0.02900504
vt 0.05126315 0.1260428
vt 0.01839803 0.108033
vt 0.1250616 0.007819341
vt 0.05085078 -0.009421195
vt 0.09411926 0.09697505
vt 0.04216997 0.09011178
vt 0.07870761 -0.02635445
vt 0.004371791 -0.009660848
vt 0.08667491 0.07332738
vt 0.03463817 0.07963724
vt 0.03475773 -0.02188586
vt -0.01484329 0.02163327
vt 0.0808089 0.06048805
vt 0.04608783 0.07555883
vt 0.02256637 0.02563407
vt -0.03132107 0.02563407
vt -1.524105E-05 0.104429
vt -0.01453922 0.09838731
vt 0.03132107 0.03756835
vt -0.02256639 0.03756835
vt 0.01453896 0.1106669
vt 1.497849E-05 0.1159909
vt -0.002792131 -0.03335584
vt 0.04415747 0.01301125
vt 0.06163658 -0.08402631
vt 0.09450166 -0.06601645
vt 0.005575943 0.004202768
vt 0.07978683 0.02144334
vt 0.03651839 -0.08495271
vt 0.08846767 -0.07808942
vt 0.05214983 0.0158951
vt 0.1264856 -0.0007985214
vt 0.0441825 -0.0837865
vt 0.09621924 -0.09009638
vt -0.08055766 -0.006375441
vt -0.02667021 -0.006375442
vt -0.07496441 -0.03944584
vt -0.02646605 -0.0394454
vt 0.02667017 -0.006381307
vt 0.08055764 -0.006381309
vt 0.02646624 -0.0394513
vt 0.0749646 -0.03945174
vt -0.1352779 -0.04028126
vt -0.06929173 -0.04028126
vt -0.1272453 -0.0723615
vt -0.06785625 -0.07236207
vt -0.123587 -0.06070328
vt -0.04739974 -0.06070328
vt -0.1177278 -0.09227715
vt -0.04915819 -0.09227704
vt -0.08256958 -0.06794312
vt -0.006382352 -0.06794312
vt -0.08081114 -0.09951688
vt -0.01224149 -0.09951699
vt -0.04056108 -0.06621902
vt 0.02542507 -0.06621902
vt -0.04199658 -0.09829982
vt 0.01739251 -0.09829926
vt -0.02256639 -0.05792708
vt 0.03132107 -0.05792708
vt -0.02277055 -0.09099703
vt 0.02572782 -0.09099747
vt -0.03132107 -0.05792357
vt 0.02256637 -0.05792357
vt -0.02572804 -0.09099401
vt 0.02277032 -0.09099357
vt -0.02542507 -0.06622343
vt 0.04056111 -0.06622343
vt -0.01739263 -0.09830374
vt 0.04199646 -0.09830428
vt 0.006382371 -0.06794115
vt 0.08256957 -0.06794115
vt 0.01224145 -0.09951507
vt 0.08081108 -0.09951496
vt 0.04739974 -0.06070379
vt 0.1235869 -0.06070379
vt 0.04915823 -0.09227761
vt 0.1177279 -0.09227771
vt 0.06929176 -0.04027213
vt 0.1352779 -0.04027213
vt 0.06785641 -0.07235298
vt 0.1272455 -0.07235244
vt 0.1959171 0.05
vt -0.06929173 -0.09999925
vt -0.1352779 -0.09999925
vt -0.0692925 -0.04999932
vt -0.1352793 -0.04999932
vt -0.1352779 0.09999605
vt -0.06929173 0.09999605
vt -0.1352793 0.04999612
vt -0.06929249 0.04999611
vt -0.04739974 -0.09999891
vt -0.1235869 -0.09999891
vt -0.04739965 -0.04999899
vt -0.1235877 -0.04999899
vt -0.123587 0.1000002
vt -0.04739974 0.1000002
vt -0.006382354 -0.1000001
vt -0.08256958 -0.1000001
vt -0.08256958 0.09999914
vt -0.006382352 0.09999914
vt -0.08256967 0.0499992
vt -0.006381576 0.0499992
vt 0.02542507 -0.09999799
vt -0.04056108 -0.09999799
vt 0.02542648 -0.04999806
vt -0.04056034 -0.04999807
vt -0.04056108 0.09999961
vt 0.02542507 0.09999961
vt -0.04056034 0.04999968
vt 0.02542648 0.04999969
vt -0.06389047 0.05000001

vn -1 0 6.423884E-08
vn -0.9278599 0 0.3729291
vn -0.5546868 -6.199316E-08 0.8320592
vn -0.3731307 -6.912481E-08 0.9277788
vn 0 -7.450571E-08 1
vn 0.3731307 -6.912482E-08 0.9277788
vn 0.5546868 -6.199316E-08 0.8320593
vn 0.9278599 0 0.372929
vn 1 0 -1.12418E-07
vn 0.7760116 0 -0.6307185
vn 0.3731347 0 -0.9277772
vn 0 0 -1
vn -0.3731346 0 -0.9277772
vn -0.7760116 0 -0.6307186
vn 0 -1 0
vn 0 1 0
vn -0.7065376 0.6482 0.2839744
vn -0.6189933 0.5233947 0.5157145
vn -0.531449 0.3985894 0.7474546
vn -0.3606204 0.7598335 0.5409306
vn -0.2542061 0.6865506 0.6584281
vn -0.1477917 0.6132677 0.7759255
vn -0.7615953 0.5712034 -0.3061033
vn -0.5940561 0.6240672 -0.4529882
vn -0.4265168 0.6769311 -0.5998731
vn -0.4092454 0.6750436 -0.6138684
vn -0.2643829 0.7222168 -0.6206833
vn -0.1195205 0.76939 -0.6274981
vn -0.1124295 0.7689143 -0.6293889
vn -0.0715204 0.7842692 -0.6145545
vn -0.0306113 0.7996241 -0.5997201
vn 0.1065695 0.7954432 -0.5965844
vn 0.06982601 0.778125 -0.6223595
vn 0.0330825 0.7608069 -0.6481345
vn 0.3606198 0.7598346 -0.5409296
vn 0.2542056 0.6865523 -0.6584267
vn 0.1477914 0.6132699 -0.7759238
vn 0.706537 0.6482007 -0.2839742
vn 0.6189926 0.5233965 -0.5157139
vn 0.5314482 0.3985924 -0.7474536
vn 0.761596 0.5712024 0.3061036
vn 0.5940568 0.624066 0.4529889
vn 0.4265176 0.6769295 0.5998743
vn 0.4092463 0.6750421 0.6138695
vn 0.2643835 0.7222154 0.6206846
vn 0.1195206 0.7693888 0.6274996
vn 0.1124298 0.7689131 0.6293903
vn 0.07152057 0.7842681 0.6145559
vn 0.03061137 0.7996231 0.5997215
vn -0.1065698 0.7954422 0.5965858
vn -0.06982617 0.778124 0.6223609
vn -0.03308258 0.7608057 0.6481361
vn -0.8417131 -0.4207956 0.3383047
vn -0.8417234 -0.4207718 -0.3383087
vn -0.5187306 -0.3542389 0.778096
vn -0.1670835 -0.3117851 0.9353465
vn 0.1670842 -0.3117751 0.9353498
vn 0.5187215 -0.3542824 0.7780823
vn 0.8417244 -0.4207696 0.3383091
vn 0.8417122 -0.4207978 -0.3383043
vn 0.5187296 -0.3542441 -0.7780944
vn 0.1670832 -0.3117916 -0.9353445
vn -0.1670837 -0.3117816 -0.9353477
vn -0.5187203 -0.3542874 -0.7780808
vn 0 0 0
vn -0.1758492 -9.854421E-06 0.9844171
vn 0.1758492 1.460749E-06 0.9844171

usemtl sandbag
f 29/49/15 30/50/15 31/51/15
f 31/51/15 30/50/15 35/55/15
f 35/55/15 30/50/15 37/57/15
f 37/57/15 30/50/15 39/59/15
f 39/59/15 30/50/15 41/61/15
f 41/61/15 30/50/15 43/63/15
f 43/63/15 30/50/15 45/65/15
f 45/65/15 30/50/15 47/67/15
f 47/67/15 30/50/15 49/69/15
f 49/69/15 30/50/15 51/71/15
f 51/71/15 30/50/15 53/73/15
f 53/73/15 30/50/15 29/49/15
f 34/54/16 33/53/16 32/52/16
f 36/56/16 33/53/16 34/54/16
f 38/58/16 33/53/16 36/56/16
f 40/60/16 33/53/16 38/58/16
f 42/62/16 33/53/16 40/60/16
f 44/64/16 33/53/16 42/62/16
f 46/66/16 33/53/16 44/64/16
f 48/68/16 33/53/16 46/66/16
f 50/70/16 33/53/16 48/68/16
f 52/72/16 33/53/16 50/70/16
f 54/74/16 33/53/16 52/72/16
f 32/52/16 33/53/16 54/74/16
f 4/4/2 2/2/1 1/1/1
f 1/1/1 3/3/2 4/4/2
f 18/24/9 16/22/8 15/21/8
f 15/21/8 17/23/9 18/24/9
f 20/28/10 18/26/9 17/25/9
f 17/25/9 19/27/10 20/28/10
f 22/32/11 20/30/10 19/29/10
f 19/29/10 21/31/11 22/32/11
f 24/36/12 22/34/11 21/33/11
f 21/33/11 23/35/12 24/36/12
f 26/40/13 24/38/12 23/37/12
f 23/37/12 25/39/13 26/40/13
f 28/44/14 26/42/13 25/41/13
f 25/41/13 27/43/14 28/44/14
f 2/48/1 28/46/14 27/45/14
f 27/45/14 1/47/1 2/48/1
f 32/78/19 2/76/18 4/75/17
f 4/75/17 34/77/18 32/78/19
f 34/82/22 4/80/21 55/79/20
f 55/79/20 36/81/21 34/82/22
f 54/86/25 28/84/24 2/83/23
f 2/83/23 32/85/24 54/86/25
f 52/90/28 26/88/27 28/87/26
f 28/87/26 54/89/27 52/90/28
f 50/94/31 24/92/30 26/91/29
f 26/91/29 52/93/30 50/94/31
f 48/98/34 22/96/33 24/95/32
f 24/95/32 50/97/33 48/98/34
f 46/102/37 20/100/36 22/99/35
f 22/99/35 48/101/36 46/102/37
f 44/106/40 18/104/39 20/103/38
f 20/103/38 46/105/39 44/106/40
f 42/110/43 16/108/42 18/107/41
f 18/107/41 44/109/42 42/110/43
f 40/114/46 56/112/45 16/111/44
f 16/111/44 42/113/45 40/114/46
f 38/118/49 57/116/48 56/115/47
f 56/115/47 40/117/48 38/118/49
f 36/122/52 55/120/51 57/119/50
f 57/119/50 38/121/51 36/122/52
f 31/126/53 3/124/53 1/123/53
f 1/123/53 29/125/53 31/126/53
f 29/130/54 1/128/54 27/127/54
f 27/127/54 53/129/54 29/130/54
f 35/134/55 58/132/55 3/131/55
f 3/131/55 31/133/55 35/134/55
f 37/138/56 59/136/56 58/135/56
f 58/135/56 35/137/56 37/138/56
f 39/142/57 60/140/57 59/139/57
f 59/139/57 37/141/57 39/142/57
f 41/146/58 15/144/58 60/143/58
f 60/143/58 39/145/58 41/146/58
f 43/150/59 17/148/59 15/147/59
f 15/147/59 41/149/59 43/150/59
f 45/154/60 19/152/60 17/151/60
f 17/151/60 43/153/60 45/154/60
f 47/158/61 21/156/61 19/155/61
f 19/155/61 45/157/61 47/158/61
f 49/162/62 23/160/62 21/159/62
f 21/159/62 47/161/62 49/162/62
f 51/166/63 25/164/63 23/163/63
f 23/163/63 49/165/63 51/166/63
f 53/170/64 27/168/64 25/167/64
f 25/167/64 51/169/64 53/170/64
f 6/171/65 4/171/65 3/171/65
f 3/171/65 5/171/65 6/171/65
f 5/175/3 3/173/3 58/172/3
f 58/172/3 7/174/3 5/175/3
f 8/179/3 55/177/3 4/176/3
f 4/176/3 6/178/3 8/179/3
f 7/183/66 58/181/66 59/180/66
f 59/180/66 9/182/66 7/183/66
f 10/12/66 57/185/66 55/184/66
f 55/184/66 8/10/66 10/12/66
f 9/13/67 59/187/67 60/186/67
f 60/186/67 11/15/67 9/13/67
f 12/191/67 56/189/67 57/188/67
f 57/188/67 10/190/67 12/191/67
f 11/195/7 60/193/7 15/192/7
f 15/192/7 13/194/7 11/195/7
f 14/199/7 16/197/7 56/196/7
f 56/196/7 12/198/7 14/199/7
f 13/200/65 15/200/65 16/200/65
f 16/200/65 14/200/65 13/200/65

usemtl White
f 7/7/4 8/8/4 6/6/3 5/5/3
f 9/11/5 10/12/5 8/10/4 7/9/4
f 11/15/6 12/16/6 10/14/5 9/13/5
f 13/19/7 14/20/7 12/18/6 11/17/6

